<svg xmlns="http://www.w3.org/2000/svg" viewBox="0 0 500 500"><g id="freepik--background-complete--inject-16"><rect y="382.4" width="500" height="0.25" style="fill:#ebebeb"></rect><rect x="52.46" y="389.21" width="37.04" height="0.25" style="fill:#ebebeb"></rect><rect x="169" y="394.62" width="71" height="0.25" style="fill:#ebebeb"></rect><rect x="94.92" y="389.33" width="50.75" height="0.25" style="fill:#ebebeb"></rect><rect x="406.78" y="396.81" width="48.67" height="0.25" style="fill:#ebebeb"></rect><rect x="370.36" y="396.81" width="31.97" height="0.25" style="fill:#ebebeb"></rect><rect x="277.21" y="392.59" width="62.01" height="0.25" style="fill:#ebebeb"></rect><path d="M237,337.8H43.91a5.71,5.71,0,0,1-5.7-5.71V60.66A5.71,5.71,0,0,1,43.91,55H237a5.71,5.71,0,0,1,5.71,5.71V332.09A5.71,5.71,0,0,1,237,337.8ZM43.91,55.2a5.46,5.46,0,0,0-5.45,5.46V332.09a5.46,5.46,0,0,0,5.45,5.46H237a5.47,5.47,0,0,0,5.46-5.46V60.66A5.47,5.47,0,0,0,237,55.2Z" style="fill:#ebebeb"></path><path d="M453.31,337.8H260.21a5.72,5.72,0,0,1-5.71-5.71V60.66A5.72,5.72,0,0,1,260.21,55h193.1A5.71,5.71,0,0,1,459,60.66V332.09A5.71,5.71,0,0,1,453.31,337.8ZM260.21,55.2a5.47,5.47,0,0,0-5.46,5.46V332.09a5.47,5.47,0,0,0,5.46,5.46h193.1a5.47,5.47,0,0,0,5.46-5.46V60.66a5.47,5.47,0,0,0-5.46-5.46Z" style="fill:#ebebeb"></path><rect x="203.44" y="72.07" width="240.45" height="107.75" transform="translate(647.32 251.88) rotate(180)" style="fill:#e6e6e6"></rect><rect x="198.41" y="72.07" width="243.13" height="107.75" transform="translate(639.96 251.88) rotate(180)" style="fill:#f0f0f0"></rect><rect x="203.44" y="179.82" width="240.45" height="9.33" transform="translate(647.32 368.96) rotate(180)" style="fill:#e6e6e6"></rect><rect x="190.05" y="179.82" width="243.13" height="9.33" transform="translate(623.23 368.96) rotate(180)" style="fill:#f0f0f0"></rect><rect x="273.13" y="11.41" width="93.69" height="229.07" transform="translate(445.92 -194.04) rotate(90)" style="fill:#fafafa"></rect><polygon points="421.55 172.79 380.3 79.09 360.83 79.09 402.08 172.79 421.55 172.79" style="fill:#fff"></polygon><path d="M431.26,165.79a.5.5,0,0,0,.5-.5V83.67a.5.5,0,1,0-1,0v81.62A.5.5,0,0,0,431.26,165.79Z" style="fill:#f0f0f0"></path><polygon points="397.9 172.79 356.64 79.09 349.05 79.09 390.3 172.79 397.9 172.79" style="fill:#fff"></polygon><rect x="159.04" y="125.49" width="93.69" height="0.89" transform="translate(331.83 -79.95) rotate(90)" style="fill:#e6e6e6"></rect><polygon points="196.75 89.69 437.21 89.69 437.85 81.83 197.4 81.83 196.75 89.69" style="fill:#ebebeb;opacity:0.6000000000000001"></polygon><polygon points="196.75 102.59 437.21 102.59 437.85 94.73 197.4 94.73 196.75 102.59" style="fill:#ebebeb;opacity:0.6000000000000001"></polygon><polygon points="196.75 115.49 437.21 115.49 437.85 107.63 197.4 107.63 196.75 115.49" style="fill:#ebebeb;opacity:0.6000000000000001"></polygon><polygon points="196.75 128.39 437.21 128.39 437.85 120.53 197.4 120.53 196.75 128.39" style="fill:#ebebeb;opacity:0.6000000000000001"></polygon><polygon points="196.75 141.29 437.21 141.29 437.85 133.43 197.4 133.43 196.75 141.29" style="fill:#ebebeb;opacity:0.6000000000000001"></polygon><polygon points="196.75 154.19 437.21 154.19 437.85 146.33 197.4 146.33 196.75 154.19" style="fill:#ebebeb;opacity:0.6000000000000001"></polygon><rect x="132.36" y="221.44" width="18.61" height="157.28" transform="translate(283.33 600.17) rotate(180)" style="fill:#e0e0e0"></rect><rect x="66.3" y="378.73" width="81.1" height="3.66" transform="translate(213.7 761.11) rotate(180)" style="fill:#f0f0f0"></rect><rect x="62.73" y="221.44" width="69.64" height="157.28" style="fill:#f5f5f5"></rect><rect x="65.36" y="252.94" width="64.36" height="30.24" style="fill:#fff"></rect><circle cx="97.55" cy="260.64" r="4.19" style="fill:#f5f5f5"></circle><rect x="65.36" y="224.65" width="64.36" height="22.31" style="fill:#f0f0f0"></rect><rect x="65.36" y="289.16" width="64.36" height="82.33" style="fill:#f0f0f0"></rect><rect x="65.36" y="224.65" width="13.58" height="22.31" style="fill:#e0e0e0"></rect><rect x="65.36" y="289.16" width="13.58" height="82.33" style="fill:#e0e0e0"></rect><rect x="133.53" y="246.27" width="70.68" height="137.49" transform="translate(337.74 630.03) rotate(180)" style="fill:#f5f5f5"></rect><rect x="133.53" y="246.27" width="5.83" height="137.49" transform="translate(272.88 630.03) rotate(180)" style="fill:#f0f0f0"></rect><rect x="198.76" y="250.19" width="162.75" height="22.08" style="fill:#e6e6e6"></rect><rect x="198.76" y="295.59" width="162.75" height="22.08" style="fill:#f0f0f0"></rect><rect x="133.53" y="246.27" width="220.14" height="10.31" style="fill:#f0f0f0"></rect><rect x="353.67" y="246.27" width="70.68" height="137.49" transform="translate(778.02 630.03) rotate(180)" style="fill:#f5f5f5"></rect><rect x="353.67" y="246.27" width="5.83" height="137.49" transform="translate(713.17 630.03) rotate(180)" style="fill:#f0f0f0"></rect><polygon points="274.11 246.27 289.36 246.27 285.65 216.59 270.4 216.59 274.11 246.27" style="fill:#f0f0f0"></polygon><polygon points="270.74 246.27 285.99 246.27 282.28 216.59 267.03 216.59 270.74 246.27" style="fill:#f5f5f5"></polygon><polygon points="268.88 231.43 284.13 231.43 282.28 216.59 267.03 216.59 268.88 231.43" style="fill:#f0f0f0"></polygon><path d="M324.92,227.88H217.05a1.5,1.5,0,0,1-1.49-1.68l8.32-66.51a1.49,1.49,0,0,1,1.48-1.31H333.23a1.49,1.49,0,0,1,1.48,1.68l-8.31,66.51A1.49,1.49,0,0,1,324.92,227.88Z" style="fill:#f0f0f0"></path><path d="M323.32,227.88H215.44A1.49,1.49,0,0,1,214,226.2l8.31-66.51a1.5,1.5,0,0,1,1.49-1.31H331.63a1.49,1.49,0,0,1,1.48,1.68l-8.31,66.51A1.49,1.49,0,0,1,323.32,227.88Z" style="fill:#f5f5f5"></path><path d="M217.44,224.2,225.22,162a.42.42,0,0,1,.42-.36H329.22a.42.42,0,0,1,.41.47l-7.78,62.25a.41.41,0,0,1-.41.36H217.86A.42.42,0,0,1,217.44,224.2Z" style="fill:#e6e6e6"></path><path d="M259.33,243.49h19.89A2.47,2.47,0,0,1,281.7,246v.31a0,0,0,0,1,0,0H256.86a0,0,0,0,1,0,0V246A2.47,2.47,0,0,1,259.33,243.49Z" style="fill:#f5f5f5"></path><path d="M281.3,243.49h11.9a2.47,2.47,0,0,1,2.47,2.47v.31a0,0,0,0,1,0,0H278.82a0,0,0,0,1,0,0V246A2.47,2.47,0,0,1,281.3,243.49Z" style="fill:#f0f0f0"></path><polygon points="229.41 246.27 306.21 246.27 308.28 242.01 239.4 242.01 229.41 246.27" style="fill:#f5f5f5"></polygon><polygon points="297.76 246.27 310.44 246.27 312.16 242.01 299.47 242.01 297.76 246.27" style="fill:#f0f0f0"></polygon><path d="M210,241.12H198.44a5.15,5.15,0,0,0-5.16,5.15h21.86A5.15,5.15,0,0,0,210,241.12Z" style="fill:#f0f0f0"></path><rect x="44.93" y="91.89" width="107.15" height="78.04" transform="translate(-32.4 229.41) rotate(-90)" style="fill:#f0f0f0"></rect><rect x="63.57" y="81.42" width="69.86" height="98.98" transform="translate(197.01 261.81) rotate(180)" style="fill:#fff"></rect><path d="M110.93,174.75h0a1.67,1.67,0,0,0,1.15-2.06L88.14,88.21a1.67,1.67,0,0,0-2.06-1.15h0a1.67,1.67,0,0,0-1.15,2.07l23.93,84.47A1.67,1.67,0,0,0,110.93,174.75Z" style="fill:#f5f5f5"></path></g><g id="freepik--Shadow--inject-16"><ellipse id="freepik--path--inject-16" cx="250" cy="416.24" rx="193.89" ry="11.32" style="fill:#f5f5f5"></ellipse></g><g id="freepik--Smartphone--inject-16"><rect x="184.19" y="90.49" width="155.9" height="325.33" rx="15.79" style="fill:#407BFF"></rect><rect x="334.02" y="145.98" width="8.04" height="55.04" rx="3.31" style="fill:#407BFF"></rect><rect x="179.27" y="156.77" width="8.04" height="21.58" rx="2.8" style="fill:#407BFF"></rect><rect x="252.11" y="86.99" width="25.56" height="1" style="fill:#407BFF"></rect><rect x="282.67" y="86.99" width="5.56" height="1" style="fill:#407BFF"></rect><rect x="181.56" y="90.49" width="155.9" height="325.33" rx="15.79" style="fill:#407BFF"></rect><rect x="183.03" y="109.01" width="152.95" height="288.82" rx="3.07" style="fill:#fff"></rect><rect x="193.89" y="123.22" width="122.81" height="164.75" rx="15" style="fill:#407BFF;opacity:0.05"></rect><path d="M273.59,208a10.08,10.08,0,0,0-10.08,10.08v90.59a10.08,10.08,0,0,0,10.08,10.09H336V208Z" style="fill:#407BFF;opacity:0.05"></path><path d="M239.79,100.06H145.25a7.2,7.2,0,0,0-7.21,7.21V155.8a7.21,7.21,0,0,0,7.21,7.21H212l14.47,7.38V163h13.34A7.21,7.21,0,0,0,247,155.8V107.27A7.21,7.21,0,0,0,239.79,100.06Z" style="fill:#263238"></path><path d="M234.39,118.41H161.74a4.13,4.13,0,0,1,0-8.26h72.65a4.13,4.13,0,1,1,0,8.26Zm-72.65-7.29a3.17,3.17,0,0,0,0,6.33h72.65a3.17,3.17,0,0,0,0-6.33Z" style="fill:#fff"></path><path d="M234.39,132.43h-50a4.06,4.06,0,0,1,0-8.11h50a4.06,4.06,0,0,1,0,8.11Zm-50-7.29a3.24,3.24,0,1,0,0,6.47h50a3.24,3.24,0,1,0,0-6.47Z" style="fill:#fff"></path><path d="M234.39,146.43H173a4.1,4.1,0,0,1,0-8.19h61.41a4.1,4.1,0,0,1,0,8.19ZM173,139.14a3.2,3.2,0,1,0,0,6.39h61.41a3.2,3.2,0,1,0,0-6.39Z" style="fill:#fff"></path><path d="M373.66,145.4H265.28a7.21,7.21,0,0,0-7.21,7.21v27.83a7.21,7.21,0,0,0,7.21,7.21h13.34V195l14.46-7.38h80.58a7.21,7.21,0,0,0,7.21-7.21V152.61A7.21,7.21,0,0,0,373.66,145.4Z" style="fill:#407BFF"></path><path d="M373.66,145.4H265.28a7.21,7.21,0,0,0-7.21,7.21v27.83a7.21,7.21,0,0,0,7.21,7.21h13.34V195l14.46-7.38h80.58a7.21,7.21,0,0,0,7.21-7.21V152.61A7.21,7.21,0,0,0,373.66,145.4Z" style="fill:#fff;opacity:0.7000000000000001"></path><path d="M343.48,163.61H270.83a4.13,4.13,0,1,1,0-8.26h72.65a4.13,4.13,0,0,1,0,8.26Zm-72.65-7.29a3.16,3.16,0,1,0,0,6.32h72.65a3.16,3.16,0,0,0,0-6.32Z" style="fill:#fff"></path><path d="M320.87,177.62h-50a4.05,4.05,0,0,1,0-8.1h50a4.05,4.05,0,1,1,0,8.1Zm-50-7.29a3.24,3.24,0,1,0,0,6.48h50a3.24,3.24,0,0,0,0-6.48Z" style="fill:#fff"></path><path d="M165.95,339.1H336a0,0,0,0,1,0,0v17.76a0,0,0,0,1,0,0h-170a5.88,5.88,0,0,1-5.88-5.88v-6A5.88,5.88,0,0,1,165.95,339.1Z" style="fill:#407BFF"></path><path d="M165.95,339.1H336a0,0,0,0,1,0,0v17.76a0,0,0,0,1,0,0h-170a5.88,5.88,0,0,1-5.88-5.88v-6A5.88,5.88,0,0,1,165.95,339.1Z" style="fill:#263238;opacity:0.2"></path><path d="M297.55,339.1H336a0,0,0,0,1,0,0v17.76a0,0,0,0,1,0,0H297.55a5.88,5.88,0,0,1-5.88-5.88v-6A5.88,5.88,0,0,1,297.55,339.1Z" style="fill:#263238;opacity:0.30000000000000004"></path><path d="M305.84,356.87l22.92,24.81c2.66,2.89,7.22.84,7.22-3.24V356.87Z" style="fill:#407BFF;opacity:0.30000000000000004"></path><path d="M196.19,356.87l22.92,24.81c2.67,2.89,7.23.84,7.23-3.24V356.87Z" style="fill:#407BFF;opacity:0.30000000000000004"></path></g><g id="freepik--Character--inject-16"><path d="M240.63,268.89c-.15,1.86-.37,3.58-.61,5.35s-.5,3.52-.81,5.27c-.6,3.51-1.32,7-2.2,10.48-.43,1.73-.89,3.47-1.42,5.2-.26.87-.53,1.73-.83,2.59a21.56,21.56,0,0,1-1,2.71c-.24.49-.49,1-.82,1.53a10.07,10.07,0,0,1-1.36,1.86,6.61,6.61,0,0,1-1.52,1.2,4.92,4.92,0,0,1-3.14.58,4.75,4.75,0,0,1-2.42-1.16,6.08,6.08,0,0,1-1-1.2,9.61,9.61,0,0,1-1.18-3.44,19.07,19.07,0,0,1-.19-3l4.74-1c.42.64.81,1.39,1.26,2s.9,1.2,1.11,1.21c0,0,.05-.07-.09-.24a2.2,2.2,0,0,0-1.26-.62,3.09,3.09,0,0,0-1.89.29c-.37.19-.5.31-.56.33s0-.12,0-.35l.19-.87c.12-.62.32-1.47.54-2.26s.39-1.61.58-2.42c.37-1.63.73-3.26,1-4.91.64-3.3,1.2-6.64,1.71-10s1-6.75,1.38-10Z" style="fill:#b55b52"></path><path d="M232,259c-2.27,3.38-4.55,16.48-4.55,16.48l15.94,7s4.48-21.33.91-25.24C240.62,253.15,234.55,255.21,232,259Z" style="fill:#407BFF"></path><path d="M235.14,267.59c-2.17,2.5-3.18,6.47-3.48,9.68l11.77,5.2a130.25,130.25,0,0,0,2.11-14.53C242.93,265.16,238.85,263.3,235.14,267.59Z" style="opacity:0.2"></path><polygon points="158.48 406.88 150.55 401.52 161.64 382.25 169.57 387.61 158.48 406.88" style="fill:#b55b52"></polygon><polygon points="210.91 414.96 201.73 411.69 204.94 389.71 214.12 392.98 210.91 414.96" style="fill:#b55b52"></polygon><path d="M201.22,410.41l10.75.45a.76.76,0,0,1,.74.68l.87,8.18a1.54,1.54,0,0,1-1.6,1.64c-3.75-.22-5.55-.14-10.27-.33-2.91-.13-8.82.6-12.83.43s-4.07-4.14-2.38-4.43c7.56-1.31,10.49-4.08,13.1-6.09A2.49,2.49,0,0,1,201.22,410.41Z" style="fill:#263238"></path><path d="M151.63,398.66l8.86,6.1a.76.76,0,0,1,.25,1l-3.81,7.7a1.53,1.53,0,0,1-2.23.53c-3-2.18-4.1-3-8-5.68-2.39-1.65-8-5.05-11.32-7.33s-1.06-5.82.52-5.17c7.09,2.93,10.79,2.77,14.07,2.45A2.59,2.59,0,0,1,151.63,398.66Z" style="fill:#263238"></path><g style="opacity:0.2"><polygon points="161.63 382.25 155.11 393.6 163.53 398.11 169.57 387.62 161.63 382.25"></polygon><polygon points="214.12 392.99 204.93 389.71 203 403.04 212.38 404.94 214.12 392.99"></polygon></g><path d="M232.3,263.34c.11,7.2,1.55,21.63,7,50.51l38.87-1c-1.06-15.8-1.33-25.56,5.4-58.22A115.1,115.1,0,0,0,267,252.88a123.81,123.81,0,0,0-17.66.45c-3.54.42-7.31,1.07-10.31,1.65A8.36,8.36,0,0,0,232.3,263.34Z" style="fill:#407BFF"></path><path d="M282.56,259.67a15.38,15.38,0,0,0-7.76,7.53c-1.88,4.29,2.83,13.11,3.95,15.09C279.51,276.19,280.73,268.93,282.56,259.67Z" style="opacity:0.2"></path><path d="M254.77,212.2c-3.87,4.33-7.37,22.67,4.64,31-.52,7.65,17.81,2.61,20-6.74C281.47,227.82,266.39,199.19,254.77,212.2Z" style="fill:#263238"></path><path d="M270.23,244.71a.27.27,0,0,1-.27-.26.28.28,0,0,1,.26-.29c7.06-.32,9.38-4.18,10.08-7.36,1.63-7.4-3.63-17.2-9.08-20a.27.27,0,0,1-.11-.37.27.27,0,0,1,.36-.11c5.62,2.92,11,13,9.36,20.63-.74,3.36-3.18,7.45-10.59,7.78Z" style="fill:#263238"></path><path d="M272,246a22.71,22.71,0,0,1-3.24-.25.27.27,0,1,1,.08-.53c7.16,1,11.83-1.35,13.16-6.66,1.91-7.69-3.8-19.3-10.72-21.81a.27.27,0,1,1,.18-.5c7.28,2.63,13.07,14.38,11.06,22.44C281.78,241.59,279.46,246,272,246Z" style="fill:#263238"></path><path d="M264.81,235.18c-1,5.71-1.86,14,2.21,17.7,0,0-7.91,4.34-16.23,18.1-7.25-11.31-1.43-17.65-1.43-17.65,6.3-1.67,6.07-4.24,4.85-8.62Z" style="fill:#b55b52"></path><path d="M254.84,260.26a3.25,3.25,0,0,1-2.74,2.43c-1.16,0-1.82-1-1.46-2.36a3.22,3.22,0,0,1,2.74-2.43C254.54,257.88,255.19,258.93,254.84,260.26Z" style="fill:#fff"></path><path d="M254,259h0a.24.24,0,0,1-.24-.25.25.25,0,0,1,.25-.25h0c.22,0,6.14-.07,12.88-5.81a.25.25,0,1,1,.33.38C260.39,258.86,254.54,259,254,259Z" style="fill:#fff"></path><path d="M252.74,258.9h0s-3.59-.62-3.59-5.57a.25.25,0,0,1,.25-.25.25.25,0,0,1,.25.25c0,4.51,3,5,3.17,5.07a.25.25,0,0,1,.2.29A.25.25,0,0,1,252.74,258.9Z" style="fill:#fff"></path><path d="M260.49,239.07l-6.27,5.63a18.52,18.52,0,0,1,.62,3.12c2.41-.41,6.17-2.57,6.62-5.21C261.67,241.36,260.71,239.65,260.49,239.07Z" style="opacity:0.2"></path><path d="M239.21,209.4c-3.9,4.36-8.81,19.48,3.28,27.82-.52,7.7,17.28,1.6,20.47-7.54S250.91,196.3,239.21,209.4Z" style="fill:#263238"></path><path d="M265.83,220.41c1.56,9.37,2.43,13.3-1.15,19.12-5.38,8.76-17.23,8.62-21.56-.09-3.9-7.85-5.8-21.86,2.4-27.62A13,13,0,0,1,265.83,220.41Z" style="fill:#b55b52"></path><path d="M243.44,210.68c.57,5,10.42,17.86,22.72,14.87,4.65,4.75,10.93-10.19,6.89-17.48S241.73,195.64,243.44,210.68Z" style="fill:#263238"></path><path d="M239.31,313.85c-18.9-1.26-57.76,3.53-63.76,22-9,27.82-19.5,51.57-19.5,51.57l12.14,5.81s23.35-28.34,30.53-46.81c14,1.56,32.56-2.8,38.15-3.49,20.52-2.51,28.93-15.79,30.9-29.82Z" style="fill:#263238"></path><path d="M223.64,323.2c-15.18-.23-33.59,9.39-31.52,36.32a94,94,0,0,0,6.6-13.09,78,78,0,0,0,14.26,0C217.77,335.82,227.29,323.26,223.64,323.2Z" style="opacity:0.2"></path><polygon points="167.28 396.26 153.82 389.22 155.07 384.41 170.42 391.77 167.28 396.26" style="fill:#407BFF"></polygon><polygon points="167.28 396.26 153.82 389.22 155.07 384.41 170.42 391.77 167.28 396.26" style="opacity:0.4"></polygon><path d="M249.57,313.59s-47.42,10.75-47.27,24.91c.33,30.28-.27,59.55-.27,59.55L215,400.62s10.81-34.28,10.9-52.63c20.26-7.58,60,9.6,52.31-35.14Z" style="fill:#263238"></path><polygon points="216.29 402.73 200.36 399.79 199.59 394.47 218.48 397.09 216.29 402.73" style="fill:#407BFF"></polygon><polygon points="216.29 402.73 200.36 399.79 199.59 394.47 218.48 397.09 216.29 402.73" style="opacity:0.4"></polygon><path d="M251.66,226.26c.17.75-.09,1.45-.58,1.56s-1-.4-1.2-1.15.08-1.46.57-1.57S251.49,225.5,251.66,226.26Z" style="fill:#263238"></path><path d="M243.15,228.22c.18.75-.08,1.45-.57,1.56s-1-.4-1.21-1.15.09-1.46.58-1.57S243,227.46,243.15,228.22Z" style="fill:#263238"></path><path d="M242.17,227.05l-1.92-.1S241.5,228.14,242.17,227.05Z" style="fill:#263238"></path><path d="M246.09,229a20.54,20.54,0,0,1-1.58,5.42,3.31,3.31,0,0,0,2.8-.12Z" style="fill:#a02724"></path><path d="M252.09,236.28a7.38,7.38,0,0,1-1.09.33.22.22,0,0,1-.27-.17.22.22,0,0,1,.17-.27,6.1,6.1,0,0,0,4.32-3.45.23.23,0,0,1,.43.16A6.37,6.37,0,0,1,252.09,236.28Z" style="fill:#263238"></path><path d="M269.5,227.65a7,7,0,0,1-2.75,4.54c-2,1.43-3.8-.13-3.95-2.43-.15-2.07.71-5.31,3-5.83A3.12,3.12,0,0,1,269.5,227.65Z" style="fill:#b55b52"></path><path d="M252.94,223a.49.49,0,0,1-.5-.19c-1.14-1.76-3.84-1.88-3.87-1.88a.46.46,0,0,1-.44-.47.46.46,0,0,1,.47-.44c.13,0,3.2.14,4.6,2.29a.45.45,0,0,1-.13.63Z" style="fill:#263238"></path><path d="M238.66,224.84a.45.45,0,0,1-.53-.7,4.48,4.48,0,0,1,3.7-1.84.45.45,0,0,1,.42.48.45.45,0,0,1-.48.42,3.6,3.6,0,0,0-2.92,1.49A.45.45,0,0,1,238.66,224.84Z" style="fill:#263238"></path><path d="M196.16,411.45a.3.3,0,0,1-.08-.08,1.28,1.28,0,0,1-.33-1.21.77.77,0,0,1,.48-.62c1.13-.46,4,1.54,4.28,1.76a.23.23,0,0,1,.09.24.23.23,0,0,1-.18.17C199.21,412,197.08,412.21,196.16,411.45Zm3.63-.09c-1.15-.76-2.79-1.64-3.39-1.4a.31.31,0,0,0-.2.28.82.82,0,0,0,.2.81C196.86,411.53,198.11,411.62,199.79,411.36Z" style="fill:#263238"></path><path d="M200,411.47c-.91-.76-2.23-2.59-2-3.55a.79.79,0,0,1,.79-.6,1.21,1.21,0,0,1,1,.34c1,1,.9,3.72.89,3.84a.22.22,0,0,1-.12.19.22.22,0,0,1-.22,0A2.32,2.32,0,0,1,200,411.47Zm-.63-3.53a.75.75,0,0,0-.54-.17c-.29,0-.36.15-.39.26-.15.65.87,2.24,1.75,3,0-.92-.17-2.48-.77-3.05Z" style="fill:#263238"></path><path d="M147.72,398a3.58,3.58,0,0,1-1.58-1.81,1.25,1.25,0,0,1,.29-1.14.74.74,0,0,1,.66-.28c1.33.14,3.36,3.91,3.59,4.34a.23.23,0,0,1,0,.26.23.23,0,0,1-.26.05A16.68,16.68,0,0,1,147.72,398Zm-.29-2.6a.84.84,0,0,0-.39-.18.27.27,0,0,0-.26.12.82.82,0,0,0-.2.75c.18.76,1.43,1.72,3.37,2.64A12,12,0,0,0,147.43,395.41Z" style="fill:#263238"></path><path d="M150.35,399.41s0,0-.06-.07c-.65-1.07-1.34-4-.58-4.85.18-.18.51-.34,1.07,0a1.65,1.65,0,0,1,.81,1c.42,1.5-.86,3.75-.91,3.85a.23.23,0,0,1-.2.11A.22.22,0,0,1,150.35,399.41Zm.33-4.49-.12-.07c-.37-.2-.48-.08-.52,0-.46.47-.12,2.68.44,3.92a5.17,5.17,0,0,0,.67-3.12A1.18,1.18,0,0,0,150.68,394.92Z" style="fill:#263238"></path><path d="M250.68,225.09l-1.93-.1S250,226.18,250.68,225.09Z" style="fill:#263238"></path><path d="M278.7,310.55l1.09,3.46c.14.26-.17.55-.62.56l-40,1c-.35,0-.64-.16-.67-.38l-.44-3.47c0-.24.27-.45.65-.46l39.36-1A.7.7,0,0,1,278.7,310.55Z" style="fill:#fff"></path><path d="M273.4,315.1l1.06,0c.21,0,.36-.12.34-.25l-.61-4.51c0-.13-.2-.24-.41-.23l-1,0c-.21,0-.37.12-.35.25l.61,4.5C273,315,273.19,315.1,273.4,315.1Z" style="fill:#263238"></path><path d="M242.13,315.9l1.06,0c.21,0,.37-.12.35-.25l-.61-4.51c0-.13-.21-.23-.42-.23l-1,0c-.21,0-.37.12-.35.25l.61,4.51C241.74,315.8,241.92,315.9,242.13,315.9Z" style="fill:#263238"></path><path d="M257.7,315.5l1.06,0c.21,0,.36-.12.35-.25l-.61-4.51c0-.13-.21-.23-.42-.23l-1.05,0c-.21,0-.37.12-.35.25l.61,4.51C257.31,315.4,257.49,315.5,257.7,315.5Z" style="fill:#263238"></path><path d="M253.56,292.33l-9.68-3.66,3.25,9.18s6.06,1,8.49-2.15Z" style="fill:#b55b52"></path><path d="M287.57,267.8c.41,1.39.68,2.57.94,3.86s.49,2.54.67,3.82a52.27,52.27,0,0,1,.56,7.87,33.08,33.08,0,0,1-1,8.33,20.41,20.41,0,0,1-.72,2.17,11.45,11.45,0,0,1-1.37,2.66A10.9,10.9,0,0,1,282,300.1a17.73,17.73,0,0,1-4.54,1.18,27.19,27.19,0,0,1-4.17.25,51.29,51.29,0,0,1-7.76-.74A81.72,81.72,0,0,1,251,296.9l1.3-4.67a128,128,0,0,0,14,1.52,51.76,51.76,0,0,0,6.73-.09,15.48,15.48,0,0,0,5.45-1.29,2.25,2.25,0,0,0,1-.85,16.65,16.65,0,0,0,.47-1.92,27.31,27.31,0,0,0,.27-6.08,60.22,60.22,0,0,0-.72-6.57c-.18-1.11-.37-2.22-.59-3.32s-.49-2.26-.71-3.21Z" style="fill:#b55b52"></path><path d="M283.58,254.63c3.92,1.08,6.94,17,6.94,17L275.67,279s-3.77-9.85-2.27-14.93C275,258.78,279.1,253.39,283.58,254.63Z" style="fill:#407BFF"></path><path d="M241.26,302.59h-8.73a1.53,1.53,0,0,1-1.4-1.13L226.59,283a.85.85,0,0,1,.84-1.13h8.74a1.53,1.53,0,0,1,1.4,1.13l4.54,18.45A.86.86,0,0,1,241.26,302.59Z" style="fill:#263238"></path><path d="M222.94,291.92l5.32-2.25L227.09,300a9.66,9.66,0,0,1-1.55.43,4.47,4.47,0,0,1-5-5.95h0A4.48,4.48,0,0,1,222.94,291.92Z" style="fill:#b55b52"></path><polygon points="232.97 291.02 231.99 298.89 227.09 299.99 228.26 289.67 232.97 291.02" style="fill:#b55b52"></polygon><polygon points="236.2 291.07 239.33 298.61 247.13 297.85 243.88 288.67 236.2 291.07" style="fill:#b55b52"></polygon></g></svg>